<svg xmlns="http://www.w3.org/2000/svg" viewBox="0 0 40.51 52.57"><defs><style>.cls-1{fill:#ed4815;}</style></defs><title>topgreen</title><g id="Layer_2" data-name="Layer 2"><g id="Layer_1-2" data-name="Layer 1"><path class="cls-1" d="M31.42,28.92,20.13,9l-9,16.15h13.1l2.88,3.82H3.76L20.13,0,36.75,28.92Z"/><path class="cls-1" d="M0,39.11H11.55V41H6.78V52.57h-2V41H0Z"/><path class="cls-1" d="M14.48,45.88a4.22,4.22,0,0,0,.23,1.36,5.19,5.19,0,0,0,.63,1.27,5.56,5.56,0,0,0,2.27,1.9L16.32,52a7,7,0,0,1-1.58-1.11,6.91,6.91,0,0,1-1.21-1.45,7.63,7.63,0,0,1-.78-1.72A6.7,6.7,0,0,1,13,43.22a6.73,6.73,0,0,1,1.45-2.16,6.85,6.85,0,0,1,2.17-1.46,6.71,6.71,0,0,1,2.7-.54A6.64,6.64,0,0,1,22,39.6a6.84,6.84,0,0,1,3.63,3.62,6.53,6.53,0,0,1,.54,2.64,6.44,6.44,0,0,1-.29,1.9A6.9,6.9,0,0,1,25,49.49a7.59,7.59,0,0,1-1.28,1.44A7.47,7.47,0,0,1,22.12,52L21,50.37a5.57,5.57,0,0,0,1.25-.81,5.93,5.93,0,0,0,1-1.06,5.05,5.05,0,0,0,.66-1.26,4.22,4.22,0,0,0,.23-1.36,4.39,4.39,0,0,0-.39-1.83,4.91,4.91,0,0,0-1.05-1.53,5,5,0,0,0-1.55-1.06,4.44,4.44,0,0,0-1.84-.39,4.62,4.62,0,0,0-1.88.39,4.87,4.87,0,0,0-1.54,1.06,5.08,5.08,0,0,0-1.05,1.53A4.39,4.39,0,0,0,14.48,45.88Z"/><path class="cls-1" d="M28.66,52.57V39.11H37a2.93,2.93,0,0,1,1.34.31,3.39,3.39,0,0,1,1.1.86,4.22,4.22,0,0,1,.76,1.31,4.75,4.75,0,0,1,.28,1.62,4.24,4.24,0,0,1-1,2.75,3.64,3.64,0,0,1-1.09.87,2.74,2.74,0,0,1-1.32.32H34.62V45.23h2.2a1.28,1.28,0,0,0,.71-.19,1.56,1.56,0,0,0,.49-.5,2.13,2.13,0,0,0,.29-.67,3.4,3.4,0,0,0,.08-.69,2.36,2.36,0,0,0-.12-.72,2.79,2.79,0,0,0-.32-.7,1.85,1.85,0,0,0-.51-.53,1.17,1.17,0,0,0-.69-.21H30.69V52.57Z"/></g></g></svg>